<svg xmlns="http://www.w3.org/2000/svg">
    <symbol id="vk" viewBox="0 0 100 100">
        <path xmlns="http://www.w3.org/2000/svg" d="M50,3.84C24.506,3.84,3.84,24.506,3.84,50S24.506,96.16,50,96.16S96.16,75.494,96.16,50S75.494,3.84,50,3.84  z M74.808,67.517c-1.97,1.232-9.975,1.599-11.913,0.191c-1.063-0.772-2.035-1.738-2.958-2.658c-0.646-0.643-1.379-0.955-1.934-1.653  c-0.453-0.571-0.764-1.245-1.241-1.809c-0.805-0.946-2.044-1.751-3.024-0.595c-1.476,1.739,0.232,5.154-1.736,6.453  c-0.66,0.436-1.326,0.562-2.151,0.5l-1.827,0.083c-1.073,0.021-2.773,0.031-3.994-0.189c-1.362-0.246-2.487-0.99-3.719-1.536  c-2.338-1.037-4.565-2.45-6.26-4.407c-4.613-5.33-10.809-12.66-13.216-19.361c-0.495-1.377-1.803-4.104-0.563-5.285  c1.686-1.225,9.961-1.57,11.252,0.324c0.524,0.77,0.855,1.896,1.226,2.769c0.462,1.088,0.712,2.113,1.434,3.076  c0.639,0.854,1.11,1.713,1.604,2.649c0.555,1.051,1.079,2.059,1.754,3.026c0.458,0.658,1.669,1.967,2.434,2.064  c1.868,0.239,1.752-4.3,1.613-5.408c-0.133-1.068-0.167-2.201-0.132-3.284c0.03-0.924,0.113-2.226-0.434-2.98  c-0.892-1.23-2.879-0.31-3.034-1.963c0.328-0.469,0.259-0.885,2.45-1.607c1.726-0.567,2.841-0.549,3.979-0.458  c2.32,0.186,4.78-0.442,7.02,0.31c2.14,0.721,1.809,3.762,1.737,5.584c-0.097,2.487,0.007,4.915,0,7.44  c-0.003,1.149-0.049,2.268,1.353,2.174c1.314-0.087,1.448-1.193,2.075-2.105c0.872-1.272,1.673-2.562,2.561-3.829  c1.197-1.713,1.559-3.638,2.686-5.393c0.403-0.627,0.75-1.963,1.371-2.459c0.47-0.377,1.363-0.18,1.932-0.18h1.353  c1.035,0,2.091-0.008,3.155,0.029c1.532,0.053,3.248-0.299,4.767-0.084c6.555,0.925-8.239,14.938-7.469,17.44  c0.532,1.728,3.907,3.659,5.125,5.074C73.701,61.345,78.679,65.092,74.808,67.517z"/>
    </symbol>
    <symbol id="fb" viewBox="0 0 112.196 112.196">
        <g xmlns="http://www.w3.org/2000/svg"><circle cx="56.098" cy="56.098" r="56.098"/><path d="M70.201,58.294h-10.01v36.672H45.025V58.294h-7.213V45.406h7.213v-8.34   c0-5.964,2.833-15.303,15.301-15.303L71.56,21.81v12.51h-8.151c-1.337,0-3.217,0.668-3.217,3.513v7.585h11.334L70.201,58.294z" style="fill:#FFFFFF;"/></g>
    </symbol>
    <symbol id="inst" viewBox="0 0 512 512" >
        <g xmlns="http://www.w3.org/2000/svg" ><path d="M505,257c0,34.8-0.7,69.7,0.2,104.5c1.5,61.6-37.2,109.2-86.5,130.4c-19.8,8.5-40.6,13-62.1,13c-67.3,0.1-134.7,1-202-0.3   c-50.7-1-92.4-22.2-122.3-64c-15.7-22-23.2-47-23.2-74.1c0-71.7,0-143.3,0-215c0-58.5,28.5-99.4,79.1-126C110.2,14,134.1,9.1,159,9   c65.3,0,130.7-0.4,196,0.2c50.7,0.4,93,19.8,124.2,60.6c17.4,22.8,25.8,49,25.8,77.8C505,184,505,220.5,505,257z M46,257   c0,36.7,0,73.3,0,110c0,16.4,3.8,31.8,12.3,45.7c22.3,36.5,56,54.3,97.8,55c67.1,1,134.3,0.4,201.5,0.2c16.5,0,32.5-3.4,47.4-10.5   c40.6-19.4,63.3-50.3,63.1-96.7c-0.4-71-0.1-142-0.1-213c0-20.1-5.7-38.5-17.6-54.7c-23-31.1-54.8-46.4-92.8-46.8   c-67-0.8-134-0.3-201-0.2c-14.3,0-28.1,2.9-41.5,7.9c-36.8,13.7-71,48.4-69.4,99.5C46.9,188,46,222.5,46,257z"/><path d="M257.6,363c-64.5,0-116.5-51.4-116.6-115.4c-0.1-63,52.3-114.6,116.4-114.6c64.3-0.1,116.5,51.4,116.6,114.9   C374,311.3,321.9,362.9,257.6,363z M257.6,326c43.9,0,79.5-35.1,79.4-78.3c-0.1-42.8-35.7-77.8-79.4-77.8   c-43.9,0-79.7,34.9-79.7,78C178,291.1,213.7,326.1,257.6,326z"/><path d="M387.5,98c13.5,0,24.5,11.5,24.5,25.6c-0.1,14.1-11.2,25.5-24.7,25.4c-13.3-0.1-24.2-11.5-24.2-25.3   C363,109.6,374,98,387.5,98z"/></g>
    </symbol>
    <symbol id="telegramm" viewBox="0 0 32 32">
        <path xmlns="http://www.w3.org/2000/svg" d="M29.919 6.163l-4.225 19.925c-0.319 1.406-1.15 1.756-2.331 1.094l-6.438-4.744-3.106 2.988c-0.344 0.344-0.631 0.631-1.294 0.631l0.463-6.556 11.931-10.781c0.519-0.462-0.113-0.719-0.806-0.256l-14.75 9.288-6.35-1.988c-1.381-0.431-1.406-1.381 0.288-2.044l24.837-9.569c1.15-0.431 2.156 0.256 1.781 2.013z"/>    
    </symbol>
</svg>